<svg id="Layer_1" data-name="Layer 1" xmlns="http://www.w3.org/2000/svg" viewBox="0 0 318 318"><defs><style>.cls-1,.cls-11{fill:#fff;}.cls-1{opacity:0.65;}.cls-2{fill:#454545;}.cls-3{fill:#1c1c1c;}.cls-4{fill:#555;}.cls-5{fill:#bcbcbc;}.cls-6{fill:#5a5a5a;}.cls-7{fill:#908f8f;}.cls-8{fill:#ec2227;}.cls-9{fill:#e7e7e7;}.cls-10{fill:#747474;}</style></defs><title>indlevering</title><circle class="cls-1" cx="159" cy="159" r="159"/><path class="cls-2" d="M100.44,103c0.49-11.88,9.07-15,18.48-17.65,26.72-7.59,53.78-14.68,80.34-23.1,17-5.11,21.94,2.64,21.94,17.65V201.69c0,7.42-2.14,15.18,10.56,21H198.6C213.28,218,214.1,210.76,214.1,203c-0.16-39.26-.16-78.36,0-117.79,0.16-13.53-3-20.46-18.15-14.52-9.9,4-20.46,5.61-30.68,8.91-7.09,2.14-17,1.65-16,13.53,1,10.39,8.91,12,17,13.2,2,0.16,4,.66,5.94,1a16.1,16.1,0,0,0,2.64,1.15c6.6,9.57,3,20.46,3.46,30.68,0.66,15-.66,30.52,4.45,45,0.66,2,1.15,3.63,2,5.61,0.49,2,.66,4,1,5.94-19.47,17.49-41.08,5.44-62,4.45-2.47-25.07-1-50.48-1-75.55,9.9-7.59,12.54,0,14.19,7.09,2.14,9.57.66,19.63,1.48,29.69,0.49,7.59-.16,18.48,9.9,19,11.38,0.49,9.07-10.56,10.06-18a31.67,31.67,0,0,0,0-4c0.49-31-1-33-31.18-38.27-4.45-2-6.1-4.62-2.64-8.91,2.64-1.65,5.44-3.63,8.41-5.11,6.6-3.46,11.38-8.41,7.42-15.67-3.46-6.6-9.4-.49-14,0-8.58,1.15-16.17,4.62-21.61,12C103.41,105.68,101.93,105.68,100.44,103Z"/><path class="cls-3" d="M100.44,103h4.45c0,48,.16,95.85.16,143.52,0.49,4-1.15,5.94-5.11,5.61-3-.16-4-2.47-3.13-5.11,4.12-38.11.66-76.38,2-114.82C99,122.67,99.78,112.77,100.44,103Z"/><path class="cls-4" d="M180.12,98.75c11.88,1.48,17.49,7.42,17.16,19.63-0.49,21.12-.16,42.56,0,63.68,0,8.41-1.48,14.52-11.55,14l-1.15-1a10,10,0,0,1-2.64-5.44,25.2,25.2,0,0,1,1.15-5.94c4.62-21.94,5.11-43.72.16-65.66C181.94,111.78,177.15,106,180.12,98.75Z"/><path class="cls-5" d="M189,190.3h-4.12c-7.92-4.45-5.94-12.37-6.1-19.14-0.49-17.49.49-35.14-.66-52.62a28,28,0,0,0-5.94-11.38v0.66c1.15-4.12,4.12-6.93,8.08-8.91,4,4.12,7.92,8.41,11.88,12.54C187.71,137.68,193.48,164.24,189,190.3Z"/><path class="cls-6" d="M127.83,123.16c-6.93,25.57-1,51.8-4,77.7-4.62-29.69-6.6-59.55.66-88.92,1.15,2.47,2.47,4.62,3.63,7.09C129.48,120.52,129.31,121.84,127.83,123.16Z"/><path class="cls-7" d="M96.81,247.38c3,2.47,5.94,3.46,8.41-.49,4.62,3,12,1.15,14.68,10.39-8.41-.66-16.17-1-24.09-2-3.46-.49-9.4,3-9.57-2.64C85.93,245.9,92.69,247.71,96.81,247.38Z"/><path class="cls-8" d="M127.83,123.16a35.14,35.14,0,0,0,.49-4.12c8.58-5.61,15.51-13.69,28.21-6.93,12.37,6.6,11.38,16.5,11.38,27.05,0,14.68.16,29.2,0,44-0.16,6.6,1.65,17.65-9.9,14.19-10.06-3-28.21,6.43-29.2-14.52C127.83,162.92,128,143.12,127.83,123.16Z"/><path class="cls-9" d="M172,107c2.64,1.15,5.11,2.64,7.92,4,4.45,28,4,56.09.16,83.8-9.57-3.63-5.61-12.37-5.94-19C173.52,152.86,175.5,130.09,172,107Z"/><path class="cls-10" d="M180.12,194.76c0-28-.16-56.09-0.16-83.8,9.57,18.48,2.47,38.27,4.45,57.57,0.66,7.09.16,14.52,0.16,21.61a48,48,0,0,1-.16,4.95C183.09,194.92,181.61,194.92,180.12,194.76Z"/><path class="cls-11" d="M189,190.3c1.15-26.23-4-52.62,3-78.69C191,137.68,196.95,164.24,189,190.3Z"/></svg>