<?xml version="1.0" encoding="utf-8"?>
<!-- Generator: Adobe Illustrator 19.2.0, SVG Export Plug-In . SVG Version: 6.00 Build 0)  -->
<svg version="1.1" id="Layer_1" xmlns="http://www.w3.org/2000/svg" xmlns:xlink="http://www.w3.org/1999/xlink" x="0px" y="0px"
	 viewBox="0 0 318 318" style="enable-background:new 0 0 318 318;" xml:space="preserve">
<style type="text/css">
	.st0{opacity:0.65;fill:#FFFFFF;}
	.st1{fill:#2B2C2B;}
	.st2{fill:#F2F2F2;}
	.st3{fill:#2D2C2C;}
	.st4{fill:#434343;}
	.st5{fill:#4E4E4E;}
	.st6{fill:#F5F6F6;}
	.st7{fill:#E6E6E5;}
	.st8{fill:#EC2227;}
	.st9{fill:#676868;}
</style>
<circle class="st0" cx="159" cy="159" r="159"/>
<g>
	<g>
		<path class="st1" d="M120.3,219.3c-4.9,2.2-10.7,6.5-15.1,2.9c-4.5-3.6-1.1-10,0.2-15.1c6-25.6,11.8-51.2,18-78.2
			c-15.6,4.9-26.3,19.2-44.1,12c4.2-9.4,14-10.7,20.3-16.5c9.4-8.5,18.7-16.9,28.1-25.4c6.2-5.6,10-10.5,2.2-19.2
			c-6-6.7-4.2-16.3,2.7-22.9c5.1-4.9,11.8-6,18.3-1.6c8.5,5.6,9.4,13.8,6,22.3c-2.2,5.3-4.9,9.6,0.7,14.3c1.3,2.9,0,5.1-2,7.1
			c-22.1,2.5-17.8,21.6-19.8,34.5c-2.9,19.2-6.7,38.3-11.4,57c-2,8,1.3,15.4,2.5,22.9C126.8,217.5,125.9,221,120.3,219.3z"/>
		<path class="st1" d="M180,115.9c9.8,5.6,13.4,22.5,32.3,11.1c6.5-3.8,18,16.5,24.9,27.2c5.3,8-5.8,9.8-10.2,13.8
			c-5.8,5.1-12.5,9.4-18.7,14c-11.4,10.2-14.7-0.7-19.4-7.6c-7.4-11.4-12.7-23.8-16.5-37.2c4.7,18.5,15.8,34.1,23.4,51.5
			c-2,5.3-6.5,6.2-11.4,6c-12.7-0.9-20-4.5-20.5-20.5c-0.4-13.4-7.8-26.5-17.6-37.2c-7.6-8.2-9.4-17.4-6.7-28.5
			c2.2-10,7.6-12.7,16.7-10C168,99.4,169.1,114.3,180,115.9z"/>
		<path class="st2" d="M194,186.5c-3.8-1.3-8-1.1-9.8-6.5c-6.5-19.6-17.8-36.8-29.8-53.2c-3.1-4.2-5.8-9.1-0.9-12.7
			c4.5-3.3,7.4,2,10.5,4.7c6,5.1,11.6,10.5,17.4,15.6c4.5,4.2,7.6,7.4,4.5,15.1c-4,10,10.7,29,22.7,32.1c0,1.6-0.2,3.1-0.2,4.9
			C203.4,190.5,198.7,191.4,194,186.5z"/>
		<path class="st3" d="M194,186.5c4.7,0,9.6,0.2,14.3,0.2c0,6,7.6,4.9,10.9,12.3c-16,3.1-30.7,0.7-45.7-0.7
			c-15.8-1.6-30.1,8.5-34.3,23.6c-9.8-0.2-7.4-8.2-8.7-13.8c6-16,22.5-24.9,37.4-19.8c5.1,1.8,9.6,4.5,14.9,1.3
			C186.5,188.5,190.3,187.6,194,186.5z"/>
		<path class="st4" d="M136.1,207.9c0.9,4.7,2,9.4,2.9,13.8c-0.4,12-0.7,24.1-1.6,36.1c-0.4,4.2-3.1,8.5-8.2,7.6
			c-4.7-0.7-3.8-5.3-4.2-8.7c-1.6-12.5-3.1-24.9-4.7-37.6c0-1.8,0-3.3,0-5.1C123.7,207,129.7,206.8,136.1,207.9z"/>
		<path class="st5" d="M180,115.9c-9.1,3.8-9.1,3.8-21.6-13.1c-2.2-2-6.2-2.9-4.7-7.1c1.3-1.1,2.7-2.5,4-3.6
			C166.9,98.1,175.3,105.2,180,115.9z"/>
		<path class="st6" d="M153.7,95.4c1.6,2.5,3.1,4.9,4.7,7.1c-3.6,2-9.8-4.5-10.7,1.6c-1.1,7.6-7.4,15.1-0.9,23.8
			c8.5,11.4,16,23.6,22.9,36.1c3.1,5.6,10,10.9,3.1,19.2c-2.5,2.7-0.9,4,9.8,6.7c-17.2,2-34.1,4.2-46.6,18.3
			c-4.9,4.7-2.9,11.1-4.5,16.7c-6.5-1.1,1.8-17.2-11.6-10.7c-9.1,2-10-2-8-9.8c5.8-23.4,11.4-46.8,16.7-70.2
			c1.6-7.1,4.9-13.6,1.3-22.5C126.6,102.1,142.1,92.1,153.7,95.4z"/>
		<path class="st7" d="M143.5,81.2c-6.7,0-10-4.2-10.2-10s2.9-10.7,9.1-11.4c6.7-0.7,9.8,4.5,10.2,10S149.7,79.8,143.5,81.2z"/>
		<path class="st8" d="M230.6,155.6c-6.5,8.7-15.4,16-24.3,17.4c-8.7,1.1-14.3-12-13.6-18.3c1.1-8.7,10.2-18.5,19.2-18.5
			C220.3,136.2,224.3,148,230.6,155.6z"/>
		<path class="st9" d="M142.6,129.5c5.3,16.3,10.7,32.3,15.8,48.6c-1.6,0.7-3.1,1.1-4.5,1.8c-5.6-16.3-10.9-32.3-16.5-48.6
			C139.2,130.6,141,129.9,142.6,129.5z"/>
	</g>
</g>
</svg>
