<?xml version="1.0" encoding="utf-8"?>
<!-- Generator: Adobe Illustrator 19.1.0, SVG Export Plug-In . SVG Version: 6.00 Build 0)  -->
<svg version="1.1" id="Layer_1" xmlns="http://www.w3.org/2000/svg" xmlns:xlink="http://www.w3.org/1999/xlink" x="0px" y="0px"
	 viewBox="0 0 146.1 146.1" style="enable-background:new 0 0 146.1 146.1;" xml:space="preserve">
<style type="text/css">
	.st0{fill:#FFFFFF;stroke:#ED1C24;stroke-width:5;stroke-miterlimit:10;}
	.st1{fill:#515251;}
	.st2{fill:#6A6A6A;}
	.st3{fill:#F6F6F6;}
	.st4{fill:#ED1C24;}
</style>
<g>
	<circle class="st0" cx="73.1" cy="73.1" r="67.1"/>
	<g>
		<path class="st1" d="M80.8,31.8c6.6,1.1,9.6,7.6,4.4,15.5c-5,7.8-4.3,12.4,2,18.5c4.1,4,4.5,10.2,5.3,15.9c0.8,5.9,1,12,3,17.5
			c3.6,9.8-3.9,9-15.4,7.5c-1.2-0.2-2.4-0.4-3.7-0.7c-8.5-1.8-16.9-1.5-26.7,0.4c4.3-11.3,3.8-22.6,6.6-33.4
			c0.3-1.1,0.7-2.2,1.1-3.3c5.1-12.1,5.2-17.6,1.8-31.4c-1.3-5.2,2-7.1,6.8-6.6C71,35,75.9,34.8,80.8,31.8z"/>
		<path class="st2" d="M80.8,31.8c-5.3,7.2-9.2,7.2-14.7,0c2.4-0.4,6.1,0.9,5.5-3.7c-0.3-1.9-0.3-3.3,1.9-3.5
			c2.1-0.1,2.9,1.5,2.7,3.2C75.9,31.5,78.2,31.8,80.8,31.8z"/>
		<path class="st3" d="M86.2,105c-9.6-1.5-19-4.4-28.9-2.9c-3,0.4-2.5-2.1-2.2-3.9c1.1-7.5,1.9-15,3.4-22.4
			c1.9-8.9,8.3-14.7,15.4-14.6c7.2,0.1,12.7,5.4,14.7,14.8c1.7,8.2,2.7,16.5,4,24.7C93.6,107,88.5,103.8,86.2,105z"/>
		<path class="st4" d="M65.1,36.1c4.2,2.9,4.1,10.7,8.9,10.3c2.9-0.3,5.2-6.7,7.9-10.5c3.1,6.6,2.1,12.4-3.4,16.6
			c-2.9,2.2-7.1,2.1-10.1,0.1C62.1,48.3,63.2,42.2,65.1,36.1z"/>
	</g>
</g>
</svg>
