<?xml version="1.0" encoding="utf-8"?>
<!-- Generator: Adobe Illustrator 19.1.0, SVG Export Plug-In . SVG Version: 6.00 Build 0)  -->
<svg version="1.1" id="Layer_1" xmlns="http://www.w3.org/2000/svg" xmlns:xlink="http://www.w3.org/1999/xlink" x="0px" y="0px"
	 viewBox="-26 27.9 146.1 146.1" style="enable-background:new -26 27.9 146.1 146.1;" xml:space="preserve">
<style type="text/css">
	.st0{fill:#FFFFFF;stroke:#ED1C24;stroke-width:5;stroke-miterlimit:10;}
	.st1{fill:#444444;}
	.st2{fill:#1C1C1C;}
	.st3{fill:#545454;}
	.st4{fill:#BCBCBC;}
	.st5{fill:#595959;}
	.st6{fill:#8F8F8F;}
	.st7{fill:#ED1C24;}
	.st8{fill:#E7E7E7;}
	.st9{fill:#737373;}
	.st10{fill:#FFFFFF;}
</style>
<g>
	<circle class="st0" cx="47.1" cy="100.9" r="66.8"/>
	<g>
		<path class="st1" d="M23.4,78.4c0.2-4.8,3.7-6.1,7.5-7.2c10.9-3.1,21.8-6,32.6-9.4c6.9-2.1,8.9,1.1,8.9,7.2c0,16.4,0,32.9,0,49.3
			c0,3-0.9,6.2,4.3,8.5c-4.9,0-7.8,0-13.4,0c6-1.9,6.3-4.8,6.3-8c-0.1-15.9-0.1-31.8,0-47.7c0.1-5.5-1.2-8.3-7.4-5.9
			c-4,1.6-8.3,2.3-12.4,3.6c-2.9,0.9-6.9,0.7-6.5,5.5c0.4,4.2,3.6,4.9,6.9,5.4c0.8,0.1,1.6,0.3,2.4,0.4c0.4,0.2,0.8,0.4,1.1,0.5
			c2.7,3.9,1.2,8.3,1.4,12.4c0.3,6.1-0.3,12.3,1.8,18.2c0.3,0.8,0.5,1.5,0.8,2.3c0.2,0.8,0.3,1.6,0.4,2.4
			c-7.9,7.1-16.6,2.2-25.1,1.8c-1-10.2-0.4-20.4-0.4-30.6c4-3.1,5.1,0,5.8,2.9c0.9,3.9,0.3,8,0.6,12c0.2,3.1-0.1,7.5,4,7.7
			c4.6,0.2,3.7-4.3,4.1-7.3c0.1-0.5,0-1.1,0-1.6c0.2-12.5-0.4-13.3-12.6-15.5c-1.8-0.8-2.5-1.9-1.1-3.6c1.1-0.7,2.2-1.5,3.4-2.1
			c2.7-1.4,4.6-3.4,3-6.4c-1.4-2.7-3.8-0.2-5.7,0c-3.5,0.5-6.6,1.9-8.8,4.9C24.6,79.4,24,79.4,23.4,78.4z"/>
		<path class="st2" d="M23.4,78.4c0.6,0,1.2,0,1.8,0c0,19.4,0.1,38.8,0.1,58.1c0.2,1.6-0.5,2.4-2.1,2.3c-1.2-0.1-1.6-1-1.3-2.1
			c1.7-15.4,0.3-31,0.8-46.5C22.8,86.3,23.1,82.3,23.4,78.4z"/>
		<path class="st3" d="M55.7,76.7c4.8,0.6,7.1,3,7,8c-0.2,8.6-0.1,17.2,0,25.8c0,3.4-0.6,5.9-4.7,5.7l-0.5-0.4
			c-0.6-0.6-0.9-1.3-1.1-2.2c0.1-0.8,0.2-1.6,0.5-2.4c1.9-8.9,2.1-17.7,0.1-26.6C56.4,81.9,54.5,79.5,55.7,76.7z"/>
		<path class="st4" d="M59.2,113.7c-0.6,0-1.2,0-1.7,0c-3.2-1.8-2.4-5-2.5-7.8c-0.2-7.1,0.2-14.2-0.3-21.3c-0.5-1.7-1.2-3.3-2.4-4.6
			v0.3c0.5-1.7,1.7-2.8,3.3-3.6c1.6,1.7,3.2,3.4,4.8,5.1C58.7,92.4,61,103.1,59.2,113.7z"/>
		<path class="st5" d="M34.5,86.5c-2.8,10.4-0.4,21-1.6,31.5c-1.9-12-2.7-24.1,0.3-36c0.5,1,1,1.9,1.5,2.9
			C35.2,85.4,35.1,86,34.5,86.5z"/>
		<path class="st6" d="M21.9,136.8c1.2,1,2.4,1.4,3.4-0.2c1.9,1.2,4.9,0.5,6,4.2c-3.4-0.3-6.6-0.4-9.8-0.8c-1.4-0.2-3.8,1.2-3.9-1.1
			C17.5,136.2,20.2,137,21.9,136.8z"/>
		<path class="st7" d="M34.5,86.5c0.1-0.6,0.2-1.1,0.2-1.7c3.5-2.3,6.3-5.6,11.4-2.8c5,2.7,4.6,6.7,4.6,11c0,6,0.1,11.8,0,17.8
			c-0.1,2.7,0.7,7.2-4,5.8c-4.1-1.2-11.4,2.6-11.8-5.9C34.5,102.6,34.6,94.6,34.5,86.5z"/>
		<path class="st8" d="M52.4,79.9c1.1,0.5,2.1,1.1,3.2,1.6c1.8,11.3,1.6,22.7,0.1,33.9c-3.9-1.5-2.3-5-2.4-7.7
			C53,98.6,53.8,89.3,52.4,79.9z"/>
		<path class="st9" d="M55.7,115.5c0-11.3-0.1-22.7-0.1-33.9c3.9,7.5,1,15.5,1.8,23.3c0.3,2.9,0.1,5.9,0.1,8.8c0,0.7,0,1.4-0.1,2
			C56.9,115.6,56.3,115.6,55.7,115.5z"/>
		<path class="st10" d="M59.2,113.7c0.5-10.7-1.6-21.3,1.2-31.9C60,92.4,62.4,103.1,59.2,113.7z"/>
	</g>
</g>
</svg>
