<?xml version="1.0" encoding="utf-8"?>
<!-- Generator: Adobe Illustrator 19.2.0, SVG Export Plug-In . SVG Version: 6.00 Build 0)  -->
<svg version="1.1" id="Layer_1" xmlns="http://www.w3.org/2000/svg" xmlns:xlink="http://www.w3.org/1999/xlink" x="0px" y="0px"
	 viewBox="0 0 951.1 170.1" style="enable-background:new 0 0 951.1 170.1;" xml:space="preserve">
<style type="text/css">
	.st0{fill:none;stroke:#000000;stroke-width:5;stroke-linecap:round;stroke-miterlimit:10;}
	.st1{fill:none;stroke:#000000;stroke-width:5;stroke-linecap:round;stroke-linejoin:round;stroke-miterlimit:10;}
	.st2{fill:none;stroke:#000000;stroke-linecap:round;stroke-linejoin:round;stroke-miterlimit:10;}
</style>
<g>
	<path d="M337.7,111.9c1,0,1.8,0.3,2.4,0.9c0.6,0.6,0.9,1.3,0.9,2.2c0,4.5-0.8,8.7-2.5,12.7c-1.7,4-4,7.5-7,10.4
		c-3,3-6.4,5.3-10.4,7c-4,1.7-8.2,2.5-12.7,2.5c-4.5,0-8.7-0.8-12.7-2.5c-4-1.7-7.5-4-10.4-7c-3-3-5.3-6.4-7-10.4
		c-1.7-4-2.5-8.2-2.5-12.7c0-0.8,0.3-1.6,0.9-2.2c0.6-0.6,1.3-0.9,2.2-0.9c1,0,1.7,0.3,2.3,0.9c0.5,0.6,0.8,1.3,0.8,2.2
		c0,3.6,0.7,7.1,2.1,10.3c1.4,3.2,3.3,6,5.7,8.4c2.4,2.4,5.2,4.3,8.4,5.7c3.2,1.4,6.6,2.1,10.3,2.1s7-0.7,10.3-2.1
		c3.2-1.4,6-3.3,8.4-5.7c2.4-2.4,4.2-5.2,5.6-8.4c1.4-3.2,2.1-6.6,2.1-10.3c0-0.8,0.3-1.6,0.9-2.2
		C336.1,112.2,336.8,111.9,337.7,111.9z M337.7,24.2c1,0,1.8,0.3,2.4,0.9c0.6,0.6,0.9,1.3,0.9,2.2v62.6c0,1-0.3,1.7-0.9,2.3
		c-0.6,0.5-1.4,0.8-2.4,0.8c-0.8,0-1.6-0.3-2.2-0.8c-0.6-0.5-0.9-1.3-0.9-2.3V27.3c0-0.8,0.3-1.6,0.9-2.2
		C336.1,24.5,336.8,24.2,337.7,24.2z"/>
	<path d="M367.6,86.8c1.2-1.7,2.7-2,4.4-0.9c0.7,0.5,1.2,1.2,1.4,2c0.2,0.8,0,1.6-0.5,2.4c-3.8,5.7-5.6,11.8-5.6,18.3
		c0,1.2,0.1,2.1,0.2,2.7c0,1.9-1,3-2.9,3.3h-0.2c-0.8,0-1.6-0.3-2.2-0.8c-0.6-0.5-0.9-1.2-0.9-2.1c-0.1-0.5-0.2-1-0.2-1.5
		c0-0.5,0-1,0-1.6c0-3.9,0.6-7.7,1.7-11.4C363.9,93.4,365.5,90,367.6,86.8z M424.2,77.8c4.7,3.8,8.4,8.3,11.1,13.6
		c2.7,5.3,4,11.1,4,17.2c0,5.3-1,10.4-3.1,15.2c-2.1,4.8-4.9,8.9-8.4,12.4c-3.6,3.5-7.7,6.3-12.4,8.4c-4.7,2.1-9.8,3.1-15.2,3.1
		c-8.1,0-15.5-2.3-22.1-6.9c-0.7-0.5-1.2-1.1-1.4-2c-0.2-0.8,0-1.6,0.6-2.4c0.5-0.7,1.1-1.1,1.9-1.3c0.8-0.1,1.5,0.1,2.3,0.5
		c5.7,3.9,11.9,5.8,18.7,5.8c4.5,0,8.7-0.8,12.8-2.5c4.1-1.7,7.6-4.1,10.5-7.1c3-3,5.3-6.5,7.1-10.4c1.8-3.9,2.6-8.2,2.6-12.8
		c0-5.1-1.1-9.9-3.4-14.4c-2.2-4.5-5.4-8.4-9.3-11.5c-6.1-4.7-12.8-7.1-20.3-7.1c-3.5,0-6.8-0.7-9.9-2.1c-3.1-1.4-5.8-3.2-8.1-5.5
		c-2.3-2.3-4.1-5-5.4-8.1c-1.3-3.1-2-6.4-2-9.9c0-3.5,0.7-6.8,2-10c1.3-3.1,3.2-5.9,5.5-8.3c2.4-2.4,5.1-4.2,8.3-5.5
		c3.1-1.3,6.5-2,10-2c3.5,0,6.8,0.7,10,2c3.1,1.3,5.9,3.2,8.3,5.5s4.2,5.1,5.5,8.3c1.3,3.1,2,6.5,2,10c0,0.8-0.3,1.6-0.9,2.2
		c-0.6,0.6-1.3,0.9-2.2,0.9c-1,0-1.7-0.3-2.3-0.9c-0.5-0.6-0.8-1.3-0.8-2.2c0-2.7-0.5-5.2-1.5-7.6c-1-2.4-2.5-4.5-4.3-6.3
		c-1.8-1.8-3.9-3.1-6.3-4.2c-2.4-1-4.9-1.5-7.5-1.5c-2.7,0-5.2,0.5-7.5,1.5c-2.4,1-4.4,2.4-6.3,4.2c-1.8,1.8-3.2,3.8-4.3,6.3
		c-1,2.4-1.5,5-1.5,7.6c0,2.7,0.5,5.2,1.5,7.5c1,2.4,2.5,4.4,4.3,6.2c1.8,1.8,3.9,3.1,6.3,4.2c2.4,1,4.9,1.5,7.5,1.5
		C409.3,69.6,417.2,72.4,424.2,77.8z"/>
	<path d="M562.6,24.2c0.8,0,1.6,0.3,2.2,0.9c0.6,0.6,0.9,1.3,0.9,2.2c0,1-0.3,1.8-0.9,2.4c-0.6,0.6-1.3,0.9-2.2,0.9H462.2
		c-0.8,0-1.6-0.3-2.2-0.9c-0.6-0.6-0.9-1.4-0.9-2.4c0-0.8,0.3-1.6,0.9-2.2c0.6-0.6,1.3-0.9,2.2-0.9H562.6z M512.5,49.2
		c0.8,0,1.6,0.3,2.2,0.9c0.6,0.6,0.9,1.4,0.9,2.4v92c0,0.8-0.3,1.6-0.9,2.2c-0.6,0.6-1.3,0.9-2.2,0.9c-1,0-1.8-0.3-2.4-0.9
		c-0.6-0.6-0.9-1.3-0.9-2.2v-92c0-1,0.3-1.8,0.9-2.4C510.7,49.6,511.5,49.2,512.5,49.2z"/>
	<path d="M642.7,24.2c8.5,0,16.5,1.6,24,4.9c7.5,3.3,14,7.7,19.6,13.3c5.6,5.6,10,12.1,13.3,19.6c3.3,7.5,4.9,15.5,4.9,24
		c0,8.6-1.6,16.6-4.9,24.1c-3.3,7.4-7.7,14-13.3,19.6c-5.6,5.6-12.1,10-19.6,13.3c-7.5,3.2-15.5,4.8-24,4.8
		c-8.6,0-16.6-1.6-24.1-4.8c-7.4-3.2-14-7.6-19.6-13.3c-5.6-5.6-10-12.2-13.3-19.6c-3.2-7.4-4.8-15.5-4.8-24.1
		c0-5.3,0.7-10.5,2-15.5c1.3-5,3.2-9.8,5.6-14.4c1.1-1.7,2.5-2.1,4.4-1.1c0.7,0.4,1.2,1,1.5,1.8c0.2,0.8,0.2,1.6-0.2,2.4
		c-2.3,4.1-4.1,8.4-5.3,13c-1.2,4.5-1.8,9.2-1.8,13.9c0,7.6,1.5,14.8,4.4,21.6c2.9,6.8,6.9,12.7,11.9,17.7c5,5,10.9,9,17.7,11.9
		c6.8,2.9,14,4.4,21.6,4.4s14.8-1.5,21.5-4.4c6.7-2.9,12.6-6.9,17.6-11.9c5-5,9-10.9,11.9-17.7c2.9-6.8,4.4-14,4.4-21.6
		s-1.5-14.8-4.4-21.5c-2.9-6.7-6.9-12.6-11.9-17.6c-5-5-10.9-9-17.6-11.9c-6.7-2.9-13.9-4.4-21.5-4.4c-9.7,0-18.6,2.3-26.9,6.9
		c-0.7,0.4-1.5,0.4-2.4,0.2c-0.8-0.2-1.5-0.7-2-1.5c-0.4-0.7-0.4-1.5-0.2-2.4c0.2-0.8,0.7-1.5,1.5-1.8C622,26.8,632,24.2,642.7,24.2
		z"/>
	<path d="M815.5,71.6c0,6.5-1.2,12.7-3.7,18.4c-2.5,5.8-5.9,10.8-10.2,15.1c-4.3,4.3-9.3,7.7-15.1,10.2c-5.8,2.5-11.9,3.7-18.4,3.7
		h-0.2l29,22.5c0.7,0.6,1.1,1.3,1.3,2.2c0.1,0.8-0.1,1.6-0.7,2.2c-0.5,0.8-1.3,1.3-2.5,1.3c-0.7,0-1.3-0.2-1.8-0.7l-66.1-51v49.2
		c0,0.8-0.3,1.6-0.9,2.2c-0.6,0.6-1.4,0.9-2.4,0.9c-0.8,0-1.6-0.3-2.2-0.9c-0.6-0.6-0.9-1.3-0.9-2.2v-92c0-1,0.3-1.7,0.9-2.3
		c0.6-0.5,1.3-0.8,2.2-0.8c1,0,1.8,0.3,2.4,0.8c0.6,0.5,0.9,1.3,0.9,2.3v34.9l26.5,20.5c1.9,1.6,4.2,2.8,6.7,3.6
		c2.5,0.8,5.1,1.3,7.8,1.3c5.7,0,11-1.1,16-3.3c5-2.2,9.3-5.1,13.1-8.8c3.8-3.7,6.7-8,8.8-13.1c2.1-5,3.2-10.4,3.2-16.1
		c0-5.7-1.1-11-3.2-16c-2.1-5-5.1-9.3-8.8-13.1c-3.8-3.8-8.1-6.7-13.1-8.8c-5-2.1-10.3-3.2-16-3.2h-44.3c-0.8,0-1.6-0.3-2.2-0.9
		c-0.6-0.6-0.9-1.4-0.9-2.4c0-0.8,0.3-1.6,0.9-2.2c0.6-0.6,1.3-0.9,2.2-0.9h44.3c6.5,0,12.7,1.2,18.4,3.7
		c5.7,2.5,10.8,5.9,15.1,10.2c4.3,4.3,7.7,9.3,10.2,15.1C814.2,58.9,815.5,65,815.5,71.6z"/>
	<path d="M929.3,24.7c0.7,0.5,1.2,1.1,1.5,1.9c0.2,0.8,0.1,1.6-0.5,2.5l-45.8,73.5c-0.6,1-1.5,1.5-2.7,1.5c-1.3,0-2.2-0.5-2.7-1.6
		l-43.9-73.5c-0.5-0.7-0.6-1.5-0.4-2.4c0.2-0.8,0.7-1.5,1.5-1.8c0.8-0.5,1.7-0.6,2.5-0.5c0.8,0.2,1.4,0.7,1.9,1.5L881.8,95L925,25.6
		c0.5-0.7,1.1-1.2,2-1.4C927.8,24.1,928.6,24.3,929.3,24.7z M881.8,123.1c1,0,1.8,0.3,2.4,0.8c0.6,0.5,0.9,1.3,0.9,2.3v18.3
		c0,0.8-0.3,1.6-0.9,2.2c-0.6,0.6-1.4,0.9-2.4,0.9c-0.8,0-1.6-0.3-2.2-0.9c-0.6-0.6-0.9-1.3-0.9-2.2v-18.3c0-1,0.3-1.7,0.9-2.3
		C880.2,123.4,880.9,123.1,881.8,123.1z"/>
</g>
<g>
	<path d="M124.7,24.2c0.8,0,1.6,0.3,2.2,0.9c0.6,0.6,0.9,1.3,0.9,2.2c0,1-0.3,1.8-0.9,2.4c-0.6,0.6-1.3,0.9-2.2,0.9H24.3
		c-0.8,0-1.6-0.3-2.2-0.9c-0.6-0.6-0.9-1.4-0.9-2.4c0-0.8,0.3-1.6,0.9-2.2c0.6-0.6,1.3-0.9,2.2-0.9H124.7z M74.6,49.2
		c0.8,0,1.6,0.3,2.2,0.9c0.6,0.6,0.9,1.4,0.9,2.4v92c0,0.8-0.3,1.6-0.9,2.2c-0.6,0.6-1.3,0.9-2.2,0.9c-1,0-1.8-0.3-2.4-0.9
		c-0.6-0.6-0.9-1.3-0.9-2.2v-92c0-1,0.3-1.8,0.9-2.4C72.8,49.6,73.6,49.2,74.6,49.2z"/>
</g>
<g>
	<path d="M202.7,24.2c8.5,0,16.5,1.6,24,4.9c7.5,3.3,14,7.7,19.6,13.3c5.6,5.6,10,12.1,13.3,19.6c3.3,7.5,4.9,15.5,4.9,24
		c0,8.6-1.6,16.6-4.9,24.1c-3.3,7.4-7.7,14-13.3,19.6c-5.6,5.6-12.1,10-19.6,13.3c-7.5,3.2-15.5,4.8-24,4.8
		c-8.6,0-16.6-1.6-24.1-4.8c-7.4-3.2-14-7.6-19.6-13.3c-5.6-5.6-10-12.2-13.3-19.6c-3.2-7.4-4.8-15.5-4.8-24.1
		c0-5.3,0.7-10.5,2-15.5c1.3-5,3.2-9.8,5.6-14.4c1.1-1.7,2.5-2.1,4.4-1.1c0.7,0.4,1.2,1,1.5,1.8c0.2,0.8,0.2,1.6-0.2,2.4
		c-2.3,4.1-4.1,8.4-5.3,13c-1.2,4.5-1.8,9.2-1.8,13.9c0,7.6,1.5,14.8,4.4,21.6c2.9,6.8,6.9,12.7,11.9,17.7c5,5,10.9,9,17.7,11.9
		c6.8,2.9,14,4.4,21.6,4.4s14.8-1.5,21.5-4.4c6.7-2.9,12.6-6.9,17.6-11.9c5-5,9-10.9,11.9-17.7c2.9-6.8,4.4-14,4.4-21.6
		s-1.5-14.8-4.4-21.5c-2.9-6.7-6.9-12.6-11.9-17.6c-5-5-10.9-9-17.6-11.9c-6.7-2.9-13.9-4.4-21.5-4.4c-9.7,0-18.6,2.3-26.9,6.9
		c-0.7,0.4-1.5,0.4-2.4,0.2c-0.8-0.2-1.5-0.7-2-1.5c-0.4-0.7-0.4-1.5-0.2-2.4c0.2-0.8,0.7-1.5,1.5-1.8C182,26.8,192,24.2,202.7,24.2
		z"/>
</g>
<line class="st0" x1="235.5" y1="53.6" x2="173.4" y2="122.2"/>
<path class="st1" d="M942.2,63.3v78.5c0,11.8-9.6,21.4-21.4,21.4H30.2c-11.8,0-21.4-9.6-21.4-21.4V127"/>
<path class="st1" d="M8.9,100.8V29.5c0-11.8,9.6-21.4,21.4-21.4h890.7c11.8,0,21.4,9.6,21.4,21.4v4.3"/>
<path class="st2" d="M822.6,8.1"/>
<path class="st2" d="M902.6,8.1"/>
</svg>
