<?xml version="1.0" encoding="utf-8"?>
<!-- Generator: Adobe Illustrator 19.1.0, SVG Export Plug-In . SVG Version: 6.00 Build 0)  -->
<svg version="1.1" id="Layer_1" xmlns="http://www.w3.org/2000/svg" xmlns:xlink="http://www.w3.org/1999/xlink" x="0px" y="0px"
	 viewBox="0 0 146.1 146.1" style="enable-background:new 0 0 146.1 146.1;" xml:space="preserve">
<style type="text/css">
	.st0{fill:#FFFFFF;stroke:#ED1C24;stroke-width:5;stroke-miterlimit:10;}
	.st1{fill:#2B2B2B;}
	.st2{fill:#F1F1F1;}
	.st3{fill:#2C2C2C;}
	.st4{fill:#424242;}
	.st5{fill:#4D4D4D;}
	.st6{fill:#F5F5F5;}
	.st7{fill:#E6E6E6;}
	.st8{fill:#ED1C24;}
	.st9{fill:#676767;}
</style>
<g>
	<circle class="st0" cx="73.9" cy="73.9" r="67.1"/>
	<g>
		<path class="st1" d="M56.5,97.5c-2.2,1-4.8,2.9-6.8,1.3c-2-1.6-0.5-4.5,0.1-6.8c2.7-11.5,5.3-23,8.1-35.1
			c-7,2.2-11.8,8.6-19.8,5.4c1.9-4.2,6.3-4.8,9.1-7.4c4.2-3.8,8.4-7.6,12.6-11.4c2.8-2.5,4.5-4.7,1-8.6c-2.7-3-1.9-7.3,1.2-10.3
			c2.3-2.2,5.3-2.7,8.2-0.7c3.8,2.5,4.2,6.2,2.7,10c-1,2.4-2.2,4.3,0.3,6.4c0.6,1.3,0,2.3-0.9,3.2c-9.9,1.1-8,9.7-8.9,15.5
			c-1.3,8.6-3,17.2-5.1,25.6c-0.9,3.6,0.6,6.9,1.1,10.3C59.4,96.7,59,98.3,56.5,97.5z"/>
		<path class="st1" d="M83.3,51.1c4.4,2.5,6,10.1,14.5,5c2.9-1.7,8.1,7.4,11.2,12.2c2.4,3.6-2.6,4.4-4.6,6.2
			c-2.6,2.3-5.6,4.2-8.4,6.3c-5.1,4.6-6.6-0.3-8.7-3.4c-3.3-5.1-5.7-10.7-7.4-16.7C82,69,87,76,90.4,83.8c-0.9,2.4-2.9,2.8-5.1,2.7
			c-5.7-0.4-9-2-9.2-9.2c-0.2-6-3.5-11.9-7.9-16.7c-3.4-3.7-4.2-7.8-3-12.8c1-4.5,3.4-5.7,7.5-4.5C77.9,43.7,78.4,50.4,83.3,51.1z"
			/>
		<path class="st2" d="M89.6,82.8c-1.7-0.6-3.6-0.5-4.4-2.9c-2.9-8.8-8-16.5-13.4-23.9c-1.4-1.9-2.6-4.1-0.4-5.7
			c2-1.5,3.3,0.9,4.7,2.1c2.7,2.3,5.2,4.7,7.8,7c2,1.9,3.4,3.3,2,6.8c-1.8,4.5,4.8,13,10.2,14.4c0,0.7-0.1,1.4-0.1,2.2
			C93.8,84.6,91.7,85,89.6,82.8z"/>
		<path class="st3" d="M89.6,82.8c2.1,0,4.3,0.1,6.4,0.1c0,2.7,3.4,2.2,4.9,5.5c-7.2,1.4-13.8,0.3-20.5-0.3
			c-7.1-0.7-13.5,3.8-15.4,10.6c-4.4-0.1-3.3-3.7-3.9-6.2c2.7-7.2,10.1-11.2,16.8-8.9c2.3,0.8,4.3,2,6.7,0.6
			C86.2,83.7,87.9,83.3,89.6,82.8z"/>
		<path class="st4" d="M63.6,92.4c0.4,2.1,0.9,4.2,1.3,6.2c-0.2,5.4-0.3,10.8-0.7,16.2c-0.2,1.9-1.4,3.8-3.7,3.4
			c-2.1-0.3-1.7-2.4-1.9-3.9c-0.7-5.6-1.4-11.2-2.1-16.9c0-0.8,0-1.5,0-2.3C58,92,60.7,91.9,63.6,92.4z"/>
		<path class="st5" d="M83.3,51.1c-4.1,1.7-4.1,1.7-9.7-5.9c-1-0.9-2.8-1.3-2.1-3.2c0.6-0.5,1.2-1.1,1.8-1.6
			C77.4,43.1,81.2,46.3,83.3,51.1z"/>
		<path class="st6" d="M71.5,41.9c0.7,1.1,1.4,2.2,2.1,3.2c-1.6,0.9-4.4-2-4.8,0.7c-0.5,3.4-3.3,6.8-0.4,10.7
			c3.8,5.1,7.2,10.6,10.3,16.2c1.4,2.5,4.5,4.9,1.4,8.6c-1.1,1.2-0.4,1.8,4.4,3c-7.7,0.9-15.3,1.9-20.9,8.2c-2.2,2.1-1.3,5-2,7.5
			c-2.9-0.5,0.8-7.7-5.2-4.8c-4.1,0.9-4.5-0.9-3.6-4.4c2.6-10.5,5.1-21,7.5-31.5c0.7-3.2,2.2-6.1,0.6-10.1
			C59.3,44.9,66.3,40.4,71.5,41.9z"/>
		<path class="st7" d="M66.9,35.5c-3,0-4.5-1.9-4.6-4.5c-0.1-2.6,1.3-4.8,4.1-5.1c3-0.3,4.4,2,4.6,4.5
			C71.2,32.9,69.7,34.9,66.9,35.5z"/>
		<path class="st8" d="M106,68.9c-2.9,3.9-6.9,7.2-10.9,7.8c-3.9,0.5-6.4-5.4-6.1-8.2c0.5-3.9,4.6-8.3,8.6-8.3
			C101.4,60.2,103.2,65.5,106,68.9z"/>
		<path class="st9" d="M66.5,57.2c2.4,7.3,4.8,14.5,7.1,21.8c-0.7,0.3-1.4,0.5-2,0.8c-2.5-7.3-4.9-14.5-7.4-21.8
			C65,57.7,65.8,57.4,66.5,57.2z"/>
	</g>
</g>
</svg>
